:SAMPLES-PER-SECOND 30
:FULLY-SPECIFIED
:DEGREES
185
root  -42.8789 34.7396 3.31868 -39.8816 88.4413 -41.3281
RightUpLeg  -5.72927 -12.1658 -3.63122
RightLeg  11.0952 -4.36976 -0.566479
RightFoot  5.67821 0.0309847 -0.258575
RightToes  -29.0588 -0.141279 -0.250566
Spine  -1.29994 -0.0436097 0.397469
Spine1  -2.6014 0.0719547 1.42603
HEad  -60.1759 -0.929828 10.4168
LeftShoulder1  -1.94126e-019 -3.10601e-018 -2.51263e-017
LeftArm  0.518963 14.2731 -83.1504
LeftForeArm  26.8844 -32.9517 -5.74851
LeftHand  -0.308624 0.461318 7.28386
RightShoulder  -4.96962e-017 0 -2.36833e-017
RightArm  -19.1679 -19.7539 73.9466
RightForeArm  51.5953 19.0767 1.56096
RightHand  -0.366548 -1.14005 -9.93629
LeftUpLeg  -8.60874 5.62734 3.9238
LeftLeg  18.9349 15.3659 4.13026
LeftFoot  2.03412 -0.0123505 0.733657
LeftToes  -24.4969 2.40056e-006 -7.68412e-008
186
root  -43.0128 34.7372 3.35971 -42.298 88.4432 -43.4954
RightUpLeg  -5.80964 -12.0439 -3.51523
RightLeg  11.335 -4.52213 -0.605475
RightFoot  5.70573 0.0315684 -0.269994
RightToes  -28.8692 -0.141032 -0.250473
Spine  -0.992567 0.0208123 0.41148
Spine1  -1.97296 0.221984 1.45128
HEad  -58.9331 -0.886825 9.66145
LeftShoulder1  -1.94126e-019 -3.10601e-018 -2.51263e-017
LeftArm  5.59115 11.0384 -84.2109
LeftForeArm  27.7545 -36.0559 -6.50594
LeftHand  -0.317553 0.0260464 6.92785
RightShoulder  -4.96962e-017 0 -2.36833e-017
RightArm  -16.6778 -16.5889 74.7822
RightForeArm  51.4327 20.0367 1.74964
RightHand  -0.358329 -1.30742 -10.0906
LeftUpLeg  -8.70535 5.56278 4.03926
LeftLeg  19.1658 15.327 4.18532
LeftFoot  2.16941 -0.014376 0.780078
LeftToes  -24.4832 2.40056e-006 -7.68412e-008
187
root  -43.1359 34.7332 3.4061 -39.524 88.4052 -40.5361
RightUpLeg  -5.96882 -11.9996 -3.4655
RightLeg  11.5958 -4.4714 -0.619436
RightFoot  5.69704 0.0306744 -0.260145
RightToes  -28.8433 -0.14079 -0.25037
Spine  -0.682704 0.0903763 0.427049
Spine1  -1.34466 0.37584 1.47531
HEad  -57.4649 -0.399768 8.32415
LeftShoulder1  -1.94126e-019 -3.10601e-018 -2.51263e-017
LeftArm  9.7387 8.4904 -84.9627
LeftForeArm  29.1795 -39.2293 -7.31301
LeftHand  -0.339036 -0.66673 6.60881
RightShoulder  -4.96962e-017 0 -2.36833e-017
RightArm  -14.2932 -13.9644 75.559
RightForeArm  51.3674 21.3162 1.99564
RightHand  -0.358366 -1.31518 -10.11
LeftUpLeg  -8.83388 5.88675 4.11098
LeftLeg  19.3861 15.0613 4.17601
LeftFoot  2.34233 -0.0163319 0.824284
LeftToes  -24.5584 2.40056e-006 -7.68412e-008
188
root  -43.2617 34.7214 3.42284 -41.0978 88.5139 -42.1841
RightUpLeg  -6.37053 -12.4207 -3.44656
RightLeg  11.8695 -4.18043 -0.599573
RightFoot  5.61531 0.0278551 -0.222617
RightToes  -28.7083 -0.140552 -0.250257
Spine  -0.422407 0.0936299 0.464999
Spine1  -0.81864 0.394271 1.54355
HEad  -56.1273 0.279359 6.98848
LeftShoulder1  -1.94126e-019 -3.10601e-018 -2.51263e-017
LeftArm  13.073 6.50405 -85.5979
LeftForeArm  30.6263 -42.2613 -8.15367
LeftHand  -0.369161 -1.19839 6.65141
RightShoulder  -4.96962e-017 0 -2.36833e-017
RightArm  -11.7099 -11.9186 76.0716
RightForeArm  51.1437 23.0183 2.33394
RightHand  -0.35449 -1.13405 -9.5923
LeftUpLeg  -9.25059 6.0083 4.08754
LeftLeg  19.6026 14.822 4.17083
LeftFoot  2.41175 -0.0164005 0.83805
LeftToes  -24.5882 2.40056e-006 -7.68412e-008
189
root  -43.4021 34.7169 3.47775 -42.4935 88.5268 -43.7162
RightUpLeg  -6.8413 -12.1599 -3.24295
RightLeg  12.0863 -4.50571 -0.663594
RightFoot  5.62336 0.0296637 -0.25106
RightToes  -28.5705 -0.140316 -0.250135
Spine  -0.147226 0.100571 0.53884
Spine1  -0.266697 0.412933 1.68409
HEad  -54.6519 1.17354 5.33288
LeftShoulder1  -1.94126e-019 -3.10601e-018 -2.51263e-017
LeftArm  15.0617 5.17161 -86.1302
LeftForeArm  32.0517 -44.9025 -8.94598
LeftHand  -0.392631 -1.72357 6.5845
RightShoulder  -4.96962e-017 0 -2.36833e-017
RightArm  -9.36765 -10.3766 76.4362
RightForeArm  51.3491 25.0032 2.71738
RightHand  -0.366178 -0.871245 -9.36289
LeftUpLeg  -9.68584 6.31596 4.1867
LeftLeg  19.7003 14.4999 4.10872
LeftFoot  2.55537 -0.0173944 0.865121
LeftToes  -24.9597 2.40056e-006 -7.68412e-008
190
root  -43.5389 34.7104 3.51811 -44.1993 88.636 -45.5144
RightUpLeg  -7.28533 -12.0248 -3.15213
RightLeg  12.3782 -4.74128 -0.722941
RightFoot  5.60792 0.0307988 -0.269692
RightToes  -28.5211 -0.140081 -0.250006
Spine  0.13608 0.0125584 0.575017
Spine1  0.292737 0.238893 1.74532
HEad  -52.7612 2.43137 3.63388
LeftShoulder1  -1.94126e-019 -3.10601e-018 -2.51263e-017
LeftArm  16.102 4.57968 -86.3283
LeftForeArm  33.145 -47.1531 -9.69295
LeftHand  -0.417385 -2.1506 6.62453
RightShoulder  -4.96962e-017 0 -2.36833e-017
RightArm  -7.48327 -9.2181 76.8741
RightForeArm  51.8447 26.6035 3.01887
RightHand  -0.394614 -0.5594 -9.47493
LeftUpLeg  -10.0179 6.36076 4.1879
LeftLeg  19.6974 14.3785 4.07434
LeftFoot  2.66701 -0.0183496 0.890541
LeftToes  -25.5183 2.40056e-006 -7.68412e-008
191
root  -43.7078 34.7065 3.55379 -47.6759 88.7845 -49.4539
RightUpLeg  -8.12436 -12.1024 -2.99114
RightLeg  12.6188 -4.84102 -0.758948
RightFoot  5.60905 0.0312934 -0.278973
RightToes  -28.2721 -0.139847 -0.249868
Spine  0.312601 -0.00657389 0.710208
Spine1  0.647578 0.191131 2.01786
HEad  -50.321 3.55404 1.6487
LeftShoulder1  -1.94126e-019 -3.10601e-018 -2.51263e-017
LeftArm  16.6514 4.51167 -86.6887
LeftForeArm  33.4253 -48.5733 -10.2299
LeftHand  -0.441104 -2.403 6.78156
RightShoulder  -4.96962e-017 0 -2.36833e-017
RightArm  -6.02405 -8.64102 76.7392
RightForeArm  52.0068 28.4817 3.40336
RightHand  -0.409223 -0.387577 -9.50603
LeftUpLeg  -10.7843 6.37305 4.12448
LeftLeg  19.6774 14.2844 4.04299
LeftFoot  2.90016 -0.0214412 0.94815
LeftToes  -26.0233 2.40056e-006 -7.68412e-008
192
root  -43.8616 34.7019 3.6016 -55.1988 88.9247 -57.4327
RightUpLeg  -8.86044 -12.4918 -2.79688
RightLeg  12.7186 -4.71708 -0.747997
RightFoot  5.68538 0.0306889 -0.272331
RightToes  -28.3836 -0.139611 -0.249724
Spine  0.450647 -0.0449613 0.810994
Spine1  0.921437 0.1165 2.20829
HEad  -47.0524 4.69644 0.0505768
LeftShoulder1  -1.94126e-019 -3.10601e-018 -2.51263e-017
LeftArm  16.8273 4.99003 -86.6865
LeftForeArm  33.174 -49.2342 -10.5204
LeftHand  -0.451023 -2.50898 6.84389
RightShoulder  -4.96962e-017 0 -2.36833e-017
RightArm  -5.64501 -8.72333 76.7916
RightForeArm  52.1212 29.7893 3.67531
RightHand  -0.417798 -0.244067 -9.44848
LeftUpLeg  -11.5298 6.58289 4.11933
LeftLeg  19.6411 13.9419 3.93885
LeftFoot  3.10165 -0.0230415 0.981586
LeftToes  -26.4467 2.40056e-006 -7.68412e-008
193
root  -44.0117 34.6991 3.63969 -75.3147 89.1037 -78.1337
RightUpLeg  -9.64887 -13.2369 -2.6064
RightLeg  12.7273 -4.42738 -0.702837
RightFoot  5.77107 0.0291119 -0.251568
RightToes  -28.6403 -0.139372 -0.249573
Spine  0.512686 -0.0698308 0.956813
Spine1  1.04285 0.0594737 2.4981
HEad  -43.4914 5.56752 -1.31942
LeftShoulder1  -1.94126e-019 -3.10601e-018 -2.51263e-017
LeftArm  17.2996 5.61933 -86.6573
LeftForeArm  32.8026 -48.6933 -10.3219
LeftHand  -0.44058 -2.28847 6.8665
RightShoulder  -4.96962e-017 0 -2.36833e-017
RightArm  -6.1053 -9.3511 76.6453
RightForeArm  51.9083 30.5307 3.84443
RightHand  -0.432259 -0.101344 -9.52476
LeftUpLeg  -12.4163 6.54215 4.06195
LeftLeg  19.6081 13.7344 3.87306
LeftFoot  3.22677 -0.023719 0.999717
LeftToes  -26.8786 2.40056e-006 -7.68412e-008
194
root  -44.168 34.699 3.69012 -94.5513 89.1044 -98.2281
RightUpLeg  -10.7185 -13.7158 -2.27456
RightLeg  12.6886 -4.34972 -0.687516
RightFoot  5.9014 0.0292288 -0.25478
RightToes  -28.8831 -0.13913 -0.249416
Spine  0.545666 -0.0720753 1.02354
Spine1  1.10984 0.0507723 2.62904
HEad  -40.2763 6.39671 -2.03424
LeftShoulder1  -1.94126e-019 -3.10601e-018 -2.51263e-017
LeftArm  17.1983 6.21766 -86.4021
LeftForeArm  32.8467 -46.9624 -9.63683
LeftHand  -0.435046 -2.60506 6.53633
RightShoulder  -4.96962e-017 0 -2.36833e-017
RightArm  -7.22367 -10.0497 76.7877
RightForeArm  51.8153 30.1306 3.7595
RightHand  -0.441188 -0.14752 -9.80215
LeftUpLeg  -13.54 6.87391 4.03428
LeftLeg  19.4779 13.3092 3.72338
LeftFoot  3.39284 -0.0241322 1.01281
LeftToes  -27.8124 2.40056e-006 -7.68412e-008
195
root  -44.2897 34.7001 3.73283 -123.538 88.8971 -127.882
RightUpLeg  -11.476 -14.5543 -2.03349
RightLeg  12.6064 -4.12538 -0.646031
RightFoot  5.95784 0.028026 -0.238879
RightToes  -29.1321 -0.138883 -0.249254
Spine  0.567037 -0.127646 1.06276
Spine1  1.14465 -0.075304 2.71225
HEad  -37.4436 6.77375 -2.29489
LeftShoulder1  -1.94126e-019 -3.10601e-018 -2.51263e-017
LeftArm  16.6627 7.05138 -86.2382
LeftForeArm  33.0279 -43.7766 -8.48305
LeftHand  -0.428701 -2.59957 6.44821
RightShoulder  -4.96962e-017 0 -2.36833e-017
RightArm  -8.88771 -10.9463 76.9727
RightForeArm  52.1187 28.5127 3.39762
RightHand  -0.440866 -0.263879 -10.0061
LeftUpLeg  -14.3912 7.0886 3.97999
LeftLeg  19.2007 12.7609 3.50712
LeftFoot  3.62927 -0.0247741 1.02854
LeftToes  -29.0066 2.40056e-006 -7.68412e-008
196
root  -44.4192 34.701 3.78973 -139.032 88.5304 -144.177
RightUpLeg  -12.3947 -14.8625 -1.71472
RightLeg  12.5415 -4.37451 -0.679897
RightFoot  6.06692 0.0304978 -0.275239
RightToes  -29.3877 -0.138629 -0.249088
Spine  0.651339 -0.239496 1.05346
Spine1  1.30392 -0.315714 2.69502
HEad  -36.1072 7.14349 -2.13361
LeftShoulder1  -1.94126e-019 -3.10601e-018 -2.51263e-017
LeftArm  15.0111 7.83357 -85.9676
LeftForeArm  32.9093 -39.6974 -7.20802
LeftHand  -0.399781 -2.54511 6.06526
RightShoulder  -4.96962e-017 0 -2.36833e-017
RightArm  -11.1634 -11.6239 77.3646
RightForeArm  52.8337 25.8862 2.82301
RightHand  -0.447281 -0.256144 -10.137
LeftUpLeg  -15.3989 7.49348 3.92202
LeftLeg  18.9405 12.0597 3.25938
LeftFoot  3.87143 -0.0245114 1.02934
LeftToes  -30.2191 2.40056e-006 -7.68412e-008
197
root  -44.5266 34.7013 3.82956 -148.998 88.0728 -154.93
RightUpLeg  -13.2944 -15.2847 -1.45703
RightLeg  12.534 -4.52744 -0.703014
RightFoot  6.06896 0.0318273 -0.294999
RightToes  -29.305 -0.138368 -0.248918
Spine  0.674691 -0.281185 1.06641
Spine1  1.34131 -0.421587 2.73213
HEad  -35.5687 7.09049 -2.0134
LeftShoulder1  -1.94126e-019 -3.10601e-018 -2.51263e-017
LeftArm  12.0208 8.82336 -86.1223
LeftForeArm  33.2156 -34.2533 -5.70518
LeftHand  -0.383557 -2.50569 5.85395
RightShoulder  -4.96962e-017 0 -2.36833e-017
RightArm  -13.8179 -12.7641 77.4484
RightForeArm  53.4431 22.7806 2.18397
RightHand  -0.440085 -0.396047 -10.2398
LeftUpLeg  -16.3201 7.68088 3.80966
LeftLeg  18.6352 11.524 3.05157
LeftFoot  4.00752 -0.023174 1.01259
LeftToes  -31.6533 2.40056e-006 -7.68412e-008
198
root  -44.6085 34.6835 3.85678 -156.408 87.4531 -163.052
RightUpLeg  -14.244 -16.1126 -1.25185
RightLeg  12.8882 -4.40454 -0.711923
RightFoot  5.90145 0.0300055 -0.269431
RightToes  -29.5443 -0.138098 -0.248745
Spine  0.764356 -0.310192 1.03111
Spine1  1.50615 -0.463556 2.62282
HEad  -35.8472 6.87017 -1.87203
LeftShoulder1  -1.94126e-019 -3.10601e-018 -2.51263e-017
LeftArm  7.41726 9.76121 -86.1571
LeftForeArm  33.7583 -28.4275 -4.44485
LeftHand  -0.406133 -2.11992 6.4752
RightShoulder  -4.96962e-017 0 -2.36833e-017
RightArm  -16.264 -13.8734 77.4379
RightForeArm  53.7437 19.1384 1.48512
RightHand  -0.440145 -0.555517 -10.5632
LeftUpLeg  -17.2587 7.71868 3.66361
LeftLeg  18.5581 11.0055 2.9004
LeftFoot  4.05512 -0.0206668 0.97683
LeftToes  -32.6426 2.40056e-006 -7.68412e-008
199
root  -44.6729 34.6582 3.89985 -159.115 86.8609 -166.485
RightUpLeg  -15.249 -16.7433 -0.944003
RightLeg  13.3479 -4.41668 -0.75036
RightFoot  5.70369 0.0292816 -0.259257
RightToes  -29.7119 -0.137818 -0.248568
Spine  0.695665 -0.306353 1.08698
Spine1  1.35499 -0.456547 2.70246
HEad  -36.2618 6.56762 -1.97879
LeftShoulder1  -1.94126e-019 -3.10601e-018 -2.51263e-017
LeftArm  0.329772 11.1721 -86.1091
LeftForeArm  35.9852 -22.4723 -3.84109
LeftHand  -0.433467 -1.38972 7.58245
RightShoulder  -4.96962e-017 0 -2.36833e-017
RightArm  -18.5669 -15.6635 77.0315
RightForeArm  54.6128 16.8123 1.07376
RightHand  -0.430362 -0.685683 -10.6007
LeftUpLeg  -18.2758 7.8279 3.60221
LeftLeg  18.6618 10.4316 2.77101
LeftFoot  4.15887 -0.0183037 0.942519
LeftToes  -34.0266 2.40056e-006 -7.68412e-008
